<svg version="1.1" viewBox="0.0 0.0 128.0 85.33333333333333" fill="none" stroke="none" stroke-linecap="square" stroke-miterlimit="10" xmlns:xlink="http://www.w3.org/1999/xlink" xmlns="http://www.w3.org/2000/svg"><clipPath id="p.0"><path d="m0 0l128.0 0l0 85.333336l-128.0 0l0 -85.333336z" clip-rule="nonzero"/></clipPath><g clip-path="url(#p.0)"><path fill="#000000" fill-opacity="0.0" d="m0 0l128.0 0l0 85.333336l-128.0 0z" fill-rule="evenodd"/><path fill="#666666" d="m39.442257 31.002625l78.897644 0l0 4.2204742l-78.897644 0z" fill-rule="evenodd"/><path stroke="#999999" stroke-width="1.0" stroke-linejoin="round" stroke-linecap="butt" d="m39.442257 31.002625l78.897644 0l0 4.2204742l-78.897644 0z" fill-rule="evenodd"/><path fill="#434343" d="m29.901575 29.165354l39.46457 0l0 14.141733l-39.46457 0z" fill-rule="evenodd"/><path stroke="#666666" stroke-width="1.0" stroke-linejoin="round" stroke-linecap="butt" d="m29.901575 29.165354l39.46457 0l0 14.141733l-39.46457 0z" fill-rule="evenodd"/><path fill="#d9d9d9" d="m57.557743 41.194225l12.283466 0l0 11.181103l-12.283466 0z" fill-rule="evenodd"/><path stroke="#efefef" stroke-width="1.0" stroke-linejoin="round" stroke-linecap="butt" d="m57.557743 41.194225l12.283466 0l0 11.181103l-12.283466 0z" fill-rule="evenodd"/><path fill="#d9d9d9" d="m10.030184 29.081366l24.944883 0l0 7.0551167l-24.944883 0z" fill-rule="evenodd"/><path stroke="#f3f3f3" stroke-width="1.0" stroke-linejoin="round" stroke-linecap="butt" d="m10.030184 29.081366l24.944883 0l0 7.0551167l-24.944883 0z" fill-rule="evenodd"/><path fill="#7f6000" d="m40.728348 35.2231l44.409447 0l0 10.456692l-44.409447 0z" fill-rule="evenodd"/><path stroke="#bf9000" stroke-width="1.0" stroke-linejoin="round" stroke-linecap="butt" d="m40.728348 35.2231l44.409447 0l0 10.456692l-44.409447 0z" fill-rule="evenodd"/><path fill="#434343" d="m23.479002 33.020996l30.267717 0l0 14.141735l-30.267717 0z" fill-rule="evenodd"/><path stroke="#666666" stroke-width="1.0" stroke-linejoin="round" stroke-linecap="butt" d="m23.479002 33.020996l30.267717 0l0 14.141735l-30.267717 0z" fill-rule="evenodd"/><path fill="#d9d9d9" d="m90.408134 47.244095l5.322838 0l0 9.007874l-5.322838 0z" fill-rule="evenodd"/><path stroke="#efefef" stroke-width="1.0" stroke-linejoin="round" stroke-linecap="butt" d="m90.408134 47.244095l5.322838 0l0 9.007874l-5.322838 0z" fill-rule="evenodd"/><path fill="#434343" d="m100.36877 30.08924l12.283463 0l0 6.047243l-12.283463 0z" fill-rule="evenodd"/><path stroke="#666666" stroke-width="1.0" stroke-linejoin="round" stroke-linecap="butt" d="m100.36877 30.08924l12.283463 0l0 6.047243l-12.283463 0z" fill-rule="evenodd"/><path fill="#d9d9d9" d="m39.757217 38.440945l6.9606285 0l0 14.141731l-6.9606285 0z" fill-rule="evenodd"/><path stroke="#efefef" stroke-width="1.0" stroke-linejoin="round" stroke-linecap="butt" d="m39.757217 38.440945l6.9606285 0l0 14.141731l-6.9606285 0z" fill-rule="evenodd"/><path fill="#d9d9d9" d="m10.030184 49.637794l92.314964 0l0 4.2204742l-92.314964 0z" fill-rule="evenodd"/><path stroke="#efefef" stroke-width="1.0" stroke-linejoin="round" stroke-linecap="butt" d="m10.030184 49.637794l92.314964 0l0 4.2204742l-92.314964 0z" fill-rule="evenodd"/><path fill="#cccccc" d="m9.660105 29.165354l8.062992 0l0 24.692915l-8.062992 0z" fill-rule="evenodd"/><path stroke="#efefef" stroke-width="1.0" stroke-linejoin="round" stroke-linecap="butt" d="m9.660105 29.165354l8.062992 0l0 24.692915l-8.062992 0z" fill-rule="evenodd"/></g></svg>