<svg version="1.1" viewBox="0.0 0.0 42.666666666666664 42.666666666666664" fill="none" stroke="none" stroke-linecap="square" stroke-miterlimit="10" xmlns:xlink="http://www.w3.org/1999/xlink" xmlns="http://www.w3.org/2000/svg"><clipPath id="p.0"><path d="m0 0l42.666668 0l0 42.666668l-42.666668 0l0 -42.666668z" clip-rule="nonzero"/></clipPath><g clip-path="url(#p.0)"><path fill="#000000" fill-opacity="0.0" d="m0 0l42.666668 0l0 42.666668l-42.666668 0z" fill-rule="evenodd"/><path fill="#0b5394" d="m0 0l42.677166 0l0 42.677166l-42.677166 0z" fill-rule="evenodd"/><path fill="#000000" fill-opacity="0.0" d="m21.333334 38.262466l0 0c-10.419483 0 -18.866142 -0.70386124 -18.866142 -1.572113l0 -30.714039l0 0c0 -0.4169507 1.9876771 -0.8168249 5.525765 -1.1116533c3.5380874 -0.2948289 8.336765 -0.4604621 13.340378 -0.4604621z" fill-rule="evenodd"/><path fill="#000000" fill-opacity="0.0" d="m21.333334 38.262466l0 0c-10.419483 0 -18.866142 -0.70386124 -18.866142 -1.572113l0 -30.714039l0 0c0 -0.4169507 1.9876771 -0.8168249 5.525765 -1.1116533c3.5380874 -0.2948289 8.336765 -0.4604621 13.340378 -0.4604621" fill-rule="evenodd"/><path stroke="#9fc5e8" stroke-width="1.0" stroke-linejoin="round" stroke-linecap="butt" d="m21.333334 38.262466l0 0c-10.419483 0 -18.866142 -0.70386124 -18.866142 -1.572113l0 -30.714039l0 0c0 -0.4169507 1.9876771 -0.8168249 5.525765 -1.1116533c3.5380874 -0.2948289 8.336765 -0.4604621 13.340378 -0.4604621" fill-rule="evenodd"/><path fill="#000000" fill-opacity="0.0" d="m21.343832 38.267715l0 0c10.419483 0 18.86614 -0.7038574 18.86614 -1.572113l0 -30.714039l0 0c0 -0.41695118 -1.9876747 -0.8168249 -5.5257645 -1.1116538c-3.5380878 -0.2948289 -8.336763 -0.4604621 -13.340376 -0.4604621z" fill-rule="evenodd"/><path fill="#000000" fill-opacity="0.0" d="m21.343832 38.267715l0 0c10.419483 0 18.86614 -0.7038574 18.86614 -1.572113l0 -30.714039l0 0c0 -0.41695118 -1.9876747 -0.8168249 -5.5257645 -1.1116538c-3.5380878 -0.2948289 -8.336763 -0.4604621 -13.340376 -0.4604621" fill-rule="evenodd"/><path stroke="#9fc5e8" stroke-width="1.0" stroke-linejoin="round" stroke-linecap="butt" d="m21.343832 38.267715l0 0c10.419483 0 18.86614 -0.7038574 18.86614 -1.572113l0 -30.714039l0 0c0 -0.41695118 -1.9876747 -0.8168249 -5.5257645 -1.1116538c-3.5380878 -0.2948289 -8.336763 -0.4604621 -13.340376 -0.4604621" fill-rule="evenodd"/><path fill="#f1c232" d="m18.72441 20.17323l5.228346 0l0 13.039368l-5.228346 0z" fill-rule="evenodd"/><path stroke="#ffd966" stroke-width="1.0" stroke-linejoin="round" stroke-linecap="butt" d="m18.72441 20.17323l5.228346 0l0 13.039368l-5.228346 0z" fill-rule="evenodd"/><path fill="#3d85c6" d="m20.057756 9.464567l2.5616531 0l0.64043236 0.64043236l0 5.7532682l0 0l-3.8425198 0l0 0l0 -5.7532682z" fill-rule="evenodd"/><path stroke="#6d9eeb" stroke-width="1.0" stroke-linejoin="round" stroke-linecap="butt" d="m20.057756 9.464567l2.5616531 0l0.64043236 0.64043236l0 5.7532682l0 0l-3.8425198 0l0 0l0 -5.7532682z" fill-rule="evenodd"/><path fill="#f1c232" d="m19.443584 15.858268l3.789997 0l0.71917343 0.7191744l0 3.595787l0 0l-5.228346 0l0 0l0 -3.595787z" fill-rule="evenodd"/><path stroke="#ffd966" stroke-width="1.0" stroke-linejoin="round" stroke-linecap="butt" d="m19.443584 15.858268l3.789997 0l0.71917343 0.7191744l0 3.595787l0 0l-5.228346 0l0 0l0 -3.595787z" fill-rule="evenodd"/><path fill="#f1c232" d="m12.055119 20.17323l5.228346 0l0 13.039368l-5.228346 0z" fill-rule="evenodd"/><path stroke="#ffd966" stroke-width="1.0" stroke-linejoin="round" stroke-linecap="butt" d="m12.055119 20.17323l5.228346 0l0 13.039368l-5.228346 0z" fill-rule="evenodd"/><path fill="#3d85c6" d="m13.388464 9.464567l2.561654 0l0.6404333 0.64043236l0 5.7532682l0 0l-3.8425198 0l0 0l0 -5.7532682z" fill-rule="evenodd"/><path stroke="#6d9eeb" stroke-width="1.0" stroke-linejoin="round" stroke-linecap="butt" d="m13.388464 9.464567l2.561654 0l0.6404333 0.64043236l0 5.7532682l0 0l-3.8425198 0l0 0l0 -5.7532682z" fill-rule="evenodd"/><path fill="#f1c232" d="m12.774293 15.858268l3.789998 0l0.71917343 0.7191744l0 3.595787l0 0l-5.228346 0l0 0l0 -3.595787z" fill-rule="evenodd"/><path stroke="#ffd966" stroke-width="1.0" stroke-linejoin="round" stroke-linecap="butt" d="m12.774293 15.858268l3.789998 0l0.71917343 0.7191744l0 3.595787l0 0l-5.228346 0l0 0l0 -3.595787z" fill-rule="evenodd"/><path fill="#f1c232" d="m25.393702 20.17323l5.228346 0l0 13.039368l-5.228346 0z" fill-rule="evenodd"/><path stroke="#ffd966" stroke-width="1.0" stroke-linejoin="round" stroke-linecap="butt" d="m25.393702 20.17323l5.228346 0l0 13.039368l-5.228346 0z" fill-rule="evenodd"/><path fill="#3d85c6" d="m26.727047 9.464567l2.561655 0l0.64043236 0.64043236l0 5.7532682l0 0l-3.8425198 0l0 0l0 -5.7532682z" fill-rule="evenodd"/><path stroke="#6d9eeb" stroke-width="1.0" stroke-linejoin="round" stroke-linecap="butt" d="m26.727047 9.464567l2.561655 0l0.64043236 0.64043236l0 5.7532682l0 0l-3.8425198 0l0 0l0 -5.7532682z" fill-rule="evenodd"/><path fill="#f1c232" d="m26.112875 15.858268l3.789997 0l0.71917534 0.7191744l0 3.595787l0 0l-5.228346 0l0 0l0 -3.595787z" fill-rule="evenodd"/><path stroke="#ffd966" stroke-width="1.0" stroke-linejoin="round" stroke-linecap="butt" d="m26.112875 15.858268l3.789997 0l0.71917534 0.7191744l0 3.595787l0 0l-5.228346 0l0 0l0 -3.595787z" fill-rule="evenodd"/></g></svg>