<svg version="1.1" viewBox="0.0 0.0 128.0 85.33333333333333" fill="none" stroke="none" stroke-linecap="square" stroke-miterlimit="10" xmlns:xlink="http://www.w3.org/1999/xlink" xmlns="http://www.w3.org/2000/svg"><clipPath id="p.0"><path d="m0 0l128.0 0l0 85.333336l-128.0 0l0 -85.333336z" clip-rule="nonzero"/></clipPath><g clip-path="url(#p.0)"><path fill="#000000" fill-opacity="0.0" d="m0 0l128.0 0l0 85.333336l-128.0 0z" fill-rule="evenodd"/><path fill="#b7b7b7" d="m48.62992 38.354332l6.4251976 0l0 11.559055l-6.4251976 0z" fill-rule="evenodd"/><path stroke="#666666" stroke-width="1.0" stroke-linejoin="round" stroke-linecap="butt" d="m48.62992 38.354332l6.4251976 0l0 11.559055l-6.4251976 0z" fill-rule="evenodd"/><path fill="#b7b7b7" d="m37.986877 38.354332l30.645668 0l0 4.598423l-30.645668 0z" fill-rule="evenodd"/><path stroke="#666666" stroke-width="1.0" stroke-linejoin="round" stroke-linecap="butt" d="m37.986877 38.354332l30.645668 0l0 4.598423l-30.645668 0z" fill-rule="evenodd"/><path fill="#b7b7b7" d="m36.692913 45.328083l62.393703 0l0 4.598427l-62.393703 0z" fill-rule="evenodd"/><path stroke="#666666" stroke-width="1.0" stroke-linejoin="round" stroke-linecap="butt" d="m36.692913 45.328083l62.393703 0l0 4.598427l-62.393703 0z" fill-rule="evenodd"/><path fill="#666666" d="m28.774263 36.28705l6.677164 -7.307087l9.511814 8.692913l-6.677166 7.307087z" fill-rule="evenodd"/><path stroke="#666666" stroke-width="1.0" stroke-linejoin="round" stroke-linecap="butt" d="m28.774263 36.28705l6.677164 -7.307087l9.511814 8.692913l-6.677166 7.307087z" fill-rule="evenodd"/><path fill="#666666" d="m18.889763 37.34646l28.0 0l0 15.779526l-28.0 0z" fill-rule="evenodd"/><path fill="#666666" d="m15.779528 28.979002l19.51703 0l1.3963547 1.3963547l0 6.9816l-20.913385 0z" fill-rule="evenodd"/><path stroke="#666666" stroke-width="1.0" stroke-linejoin="round" stroke-linecap="butt" d="m15.779528 28.979002l19.51703 0l1.3963547 1.3963547l0 6.9816l-20.913385 0z" fill-rule="evenodd"/><path fill="#434343" d="m7.6062994 40.65354l0 0c0 -6.888336 5.753317 -12.472439 12.850394 -12.472439l0 0c3.4081364 0 6.6766834 1.3140564 9.086599 3.6530933c2.409916 2.339037 3.763794 5.51145 3.763794 8.819345l0 0c0 6.88834 -5.753317 12.472443 -12.850393 12.472443l0 0c-7.0970774 0 -12.850394 -5.5841026 -12.850394 -12.472443z" fill-rule="evenodd"/><path stroke="#4b4b4b" stroke-width="1.0" stroke-linejoin="round" stroke-linecap="butt" d="m7.6062994 40.65354l0 0c0 -6.888336 5.753317 -12.472439 12.850394 -12.472439l0 0c3.4081364 0 6.6766834 1.3140564 9.086599 3.6530933c2.409916 2.339037 3.763794 5.51145 3.763794 8.819345l0 0c0 6.88834 -5.753317 12.472443 -12.850393 12.472443l0 0c-7.0970774 0 -12.850394 -5.5841026 -12.850394 -12.472443z" fill-rule="evenodd"/><path fill="#666666" d="m18.062992 40.65354l0 0c0 -1.2698174 1.0716972 -2.2992096 2.3937016 -2.2992096l0 0c0.63484764 0 1.2436962 0.24223709 1.6926022 0.67342377c0.44890594 0.43118286 0.7010975 1.0159988 0.7010975 1.6257858l0 0c0 1.2698212 -1.0716953 2.2992134 -2.3936996 2.2992134l0 0c-1.3220043 0 -2.3937016 -1.0293922 -2.3937016 -2.2992134z" fill-rule="evenodd"/><path fill="#b7b7b7" d="m72.67454 45.31496l-1.7401581 -6.9606285l-12.212593 0l1.7401543 6.9606285z" fill-rule="evenodd"/><path stroke="#666666" stroke-width="1.0" stroke-linejoin="round" stroke-linecap="butt" d="m72.67454 45.31496l-1.7401581 -6.9606285l-12.212593 0l1.7401543 6.9606285z" fill-rule="evenodd"/><path fill="#b7b7b7" d="m56.212597 38.90551l6.4251976 0l0 3.4960632l-6.4251976 0z" fill-rule="evenodd"/><path fill="#b7b7b7" d="m33.582676 46.257217l8.944881 0l0 2.740158l-8.944881 0z" fill-rule="evenodd"/><path fill="#cccccc" d="m38.356956 47.44882l3.307087 0l0 0.724411l-3.307087 0z" fill-rule="evenodd"/><path fill="#999999" d="m34.821053 29.912323l4.614174 4.2204742l0 4.2204704l-9.228346 -8.440945z" fill-rule="evenodd"/></g></svg>