<svg version="1.1" viewBox="0.0 0.0 128.0 128.0" fill="none" stroke="none" stroke-linecap="square" stroke-miterlimit="10" xmlns:xlink="http://www.w3.org/1999/xlink" xmlns="http://www.w3.org/2000/svg"><clipPath id="p.0"><path d="m0 0l128.0 0l0 128.0l-128.0 0l0 -128.0z" clip-rule="nonzero"/></clipPath><g clip-path="url(#p.0)"><path fill="#000000" fill-opacity="0.0" d="m0 0l128.0 0l0 128.0l-128.0 0z" fill-rule="evenodd"/><path fill="#000000" fill-opacity="0.0" d="m-0.0131233595 64.0l0 0c0 -35.346222 28.653774 -64.0 64.0 -64.0l0 0c16.973854 0 33.252502 6.742838 45.25483 18.745167c12.002335 12.002327 18.74517 28.28098 18.74517 45.254833l0 0c0 35.346222 -28.653778 64.0 -64.0 64.0l0 0c-35.346226 0 -64.0 -28.653778 -64.0 -64.0z" fill-rule="evenodd"/><path stroke="#000000" stroke-width="1.0" stroke-linejoin="round" stroke-linecap="butt" d="m-0.0131233595 64.0l0 0c0 -35.346222 28.653774 -64.0 64.0 -64.0l0 0c16.973854 0 33.252502 6.742838 45.25483 18.745167c12.002335 12.002327 18.74517 28.28098 18.74517 45.254833l0 0c0 35.346222 -28.653778 64.0 -64.0 64.0l0 0c-35.346226 0 -64.0 -28.653778 -64.0 -64.0z" fill-rule="evenodd"/></g></svg>