<svg version="1.1" viewBox="0.0 0.0 42.666666666666664 42.666666666666664" fill="none" stroke="none" stroke-linecap="square" stroke-miterlimit="10" xmlns:xlink="http://www.w3.org/1999/xlink" xmlns="http://www.w3.org/2000/svg"><clipPath id="p.0"><path d="m0 0l42.666668 0l0 42.666668l-42.666668 0l0 -42.666668z" clip-rule="nonzero"/></clipPath><g clip-path="url(#p.0)"><path fill="#000000" fill-opacity="0.0" d="m0 0l42.666668 0l0 42.666668l-42.666668 0z" fill-rule="evenodd"/><path fill="#f3f3f3" d="m0 0l42.677166 0l0 42.677166l-42.677166 0z" fill-rule="evenodd"/><path fill="#000000" fill-opacity="0.0" d="m2.440945 21.338583l0 0c0 -10.436877 8.460761 -18.897638 18.897638 -18.897638l0 0c5.011965 0 9.818653 1.9909952 13.362646 5.5349903c3.543995 3.543994 5.534992 8.350683 5.534992 13.362648l0 0c0 10.436876 -8.460762 18.897638 -18.897638 18.897638l0 0c-10.436877 0 -18.897638 -8.460762 -18.897638 -18.897638z" fill-rule="evenodd"/><path stroke="#990000" stroke-width="1.0" stroke-linejoin="round" stroke-linecap="butt" d="m2.440945 21.338583l0 0c0 -10.436877 8.460761 -18.897638 18.897638 -18.897638l0 0c5.011965 0 9.818653 1.9909952 13.362646 5.5349903c3.543995 3.543994 5.534992 8.350683 5.534992 13.362648l0 0c0 10.436876 -8.460762 18.897638 -18.897638 18.897638l0 0c-10.436877 0 -18.897638 -8.460762 -18.897638 -18.897638z" fill-rule="evenodd"/><path fill="#cc0000" d="m11.884515 16.608923l4.724408 0l0 -4.724408l9.44882 0l0 4.724408l4.724409 0l0 9.44882l-4.724409 0l0 4.724409l-9.44882 0l0 -4.724409l-4.724408 0z" fill-rule="evenodd"/><path stroke="#990000" stroke-width="1.0" stroke-linejoin="round" stroke-linecap="butt" d="m11.884515 16.608923l4.724408 0l0 -4.724408l9.44882 0l0 4.724408l4.724409 0l0 9.44882l-4.724409 0l0 4.724409l-9.44882 0l0 -4.724409l-4.724408 0z" fill-rule="evenodd"/></g></svg>