<svg version="1.1" viewBox="0.0 0.0 128.0 85.33333333333333" fill="none" stroke="none" stroke-linecap="square" stroke-miterlimit="10" xmlns:xlink="http://www.w3.org/1999/xlink" xmlns="http://www.w3.org/2000/svg"><clipPath id="p.0"><path d="m0 0l128.0 0l0 85.333336l-128.0 0l0 -85.333336z" clip-rule="nonzero"/></clipPath><g clip-path="url(#p.0)"><path fill="#000000" fill-opacity="0.0" d="m0 0l128.0 0l0 85.333336l-128.0 0z" fill-rule="evenodd"/><path fill="#666666" d="m54.22966 51.934383l53.95275 0l0 5.0393715l-53.95275 0z" fill-rule="evenodd"/><path stroke="#999999" stroke-width="1.0" stroke-linejoin="round" stroke-linecap="butt" d="m54.22966 51.934383l53.95275 0l0 5.0393715l-53.95275 0z" fill-rule="evenodd"/><path fill="#666666" d="m54.22966 42.524933l53.95275 0l0 5.0393715l-53.95275 0z" fill-rule="evenodd"/><path stroke="#999999" stroke-width="1.0" stroke-linejoin="round" stroke-linecap="butt" d="m54.22966 42.524933l53.95275 0l0 5.0393715l-53.95275 0z" fill-rule="evenodd"/><path fill="#666666" d="m41.94488 39.879265l19.154793 0l3.2389107 3.2389107l0 16.19416l-22.393703 0z" fill-rule="evenodd"/><path stroke="#999999" stroke-width="1.0" stroke-linejoin="round" stroke-linecap="butt" d="m41.94488 39.879265l19.154793 0l3.2389107 3.2389107l0 16.19416l-22.393703 0z" fill-rule="evenodd"/><path fill="#434343" d="m2.189039 45.757847l0 0c-1.2089624 -1.6032524 -0.8895799 -3.883339 0.7133608 -5.092716l25.880278 -19.525974c0.76976013 -0.58076286 1.7386208 -0.8318939 2.6934433 -0.6981468c0.95482254 0.1337471 1.8173943 0.64141464 2.3979568 1.4113235l8.755821 11.611431c1.2089615 1.6032524 0.8895798 3.883339 -0.71336365 5.092716l-25.880276 19.525974c-1.6029415 1.2093735 -3.8824396 0.8900757 -5.091402 -0.7131767z" fill-rule="evenodd"/><path stroke="#666666" stroke-width="1.0" stroke-linejoin="round" stroke-linecap="butt" d="m2.189039 45.757847l0 0c-1.2089624 -1.6032524 -0.8895799 -3.883339 0.7133608 -5.092716l25.880278 -19.525974c0.76976013 -0.58076286 1.7386208 -0.8318939 2.6934433 -0.6981468c0.95482254 0.1337471 1.8173943 0.64141464 2.3979568 1.4113235l8.755821 11.611431c1.2089615 1.6032524 0.8895798 3.883339 -0.71336365 5.092716l-25.880276 19.525974c-1.6029415 1.2093735 -3.8824396 0.8900757 -5.091402 -0.7131767z" fill-rule="evenodd"/><path fill="#666666" d="m5.55911 45.453438l0 0c-0.9132452 -1.2089615 -0.6731677 -2.9288864 0.5362277 -3.8415565l22.707005 -17.135868c0.5807724 -0.438282 1.3119736 -0.6279831 2.0327473 -0.52737236c0.7207737 0.100608826 1.372078 0.48328972 1.8106346 1.0638542l6.614105 8.7558155c0.91324615 1.2089653 0.6731682 2.9288902 -0.5362282 3.8415604l-22.707005 17.135868c-1.2093954 0.91267014 -2.9301357 0.67248154 -3.843381 -0.53647995z" fill-rule="evenodd"/><path stroke="#999999" stroke-width="1.0" stroke-linejoin="round" stroke-linecap="butt" d="m5.55911 45.453438l0 0c-0.9132452 -1.2089615 -0.6731677 -2.9288864 0.5362277 -3.8415565l22.707005 -17.135868c0.5807724 -0.438282 1.3119736 -0.6279831 2.0327473 -0.52737236c0.7207737 0.100608826 1.372078 0.48328972 1.8106346 1.0638542l6.614105 8.7558155c0.91324615 1.2089653 0.6731682 2.9288902 -0.5362282 3.8415604l-22.707005 17.135868c-1.2093954 0.91267014 -2.9301357 0.67248154 -3.843381 -0.53647995z" fill-rule="evenodd"/><path fill="#666666" d="m28.627296 41.375328l-18.078678 0l-3.023683 3.0236816l0 15.11805l21.102362 0z" fill-rule="evenodd"/><path stroke="#999999" stroke-width="1.0" stroke-linejoin="round" stroke-linecap="butt" d="m28.627296 41.375328l-18.078678 0l-3.023683 3.0236816l0 15.11805l21.102362 0z" fill-rule="evenodd"/><path fill="#434343" d="m20.656168 39.26509l33.574806 0l0 21.007874l-33.574806 0z" fill-rule="evenodd"/><path stroke="#666666" stroke-width="1.0" stroke-linejoin="round" stroke-linecap="butt" d="m20.656168 39.26509l33.574806 0l0 21.007874l-33.574806 0z" fill-rule="evenodd"/><path fill="#666666" d="m104.61811 47.490788l0 -4.892338l1.2231216 -1.2231216l11.060341 0l0 0l0 7.338581l0 0l-11.060341 0z" fill-rule="evenodd"/><path stroke="#999999" stroke-width="1.0" stroke-linejoin="round" stroke-linecap="butt" d="m104.61811 47.490788l0 -4.892338l1.2231216 -1.2231216l11.060341 0l0 0l0 7.338581l0 0l-11.060341 0z" fill-rule="evenodd"/><path fill="#666666" d="m104.61811 56.900238l0 -4.892338l1.2231216 -1.2231216l11.060341 0l0 0l0 7.338581l0 0l-11.060341 0z" fill-rule="evenodd"/><path stroke="#999999" stroke-width="1.0" stroke-linejoin="round" stroke-linecap="butt" d="m104.61811 56.900238l0 -4.892338l1.2231216 -1.2231216l11.060341 0l0 0l0 7.338581l0 0l-11.060341 0z" fill-rule="evenodd"/><path fill="#000000" d="m10.643044 46.58532l0 0c0 -0.463871 0.3760414 -0.8399124 0.8399124 -0.8399124l6.0367117 0c0.22275734 0 0.43639374 0.08848953 0.5939064 0.24600601c0.15751457 0.15751266 0.24600601 0.37114716 0.24600601 0.5939064l0 3.3595467c0 0.463871 -0.3760414 0.8399124 -0.8399124 0.8399124l-6.0367117 0c-0.463871 0 -0.8399124 -0.3760414 -0.8399124 -0.8399124z" fill-rule="evenodd"/><path stroke="#434343" stroke-width="1.0" stroke-linejoin="round" stroke-linecap="butt" d="m10.643044 46.58532l0 0c0 -0.463871 0.3760414 -0.8399124 0.8399124 -0.8399124l6.0367117 0c0.22275734 0 0.43639374 0.08848953 0.5939064 0.24600601c0.15751457 0.15751266 0.24600601 0.37114716 0.24600601 0.5939064l0 3.3595467c0 0.463871 -0.3760414 0.8399124 -0.8399124 0.8399124l-6.0367117 0c-0.463871 0 -0.8399124 -0.3760414 -0.8399124 -0.8399124z" fill-rule="evenodd"/></g></svg>