<svg version="1.1" viewBox="0.0 0.0 128.0 85.33333333333333" fill="none" stroke="none" stroke-linecap="square" stroke-miterlimit="10" xmlns:xlink="http://www.w3.org/1999/xlink" xmlns="http://www.w3.org/2000/svg"><clipPath id="p.0"><path d="m0 0l128.0 0l0 85.333336l-128.0 0l0 -85.333336z" clip-rule="nonzero"/></clipPath><g clip-path="url(#p.0)"><path fill="#000000" fill-opacity="0.0" d="m0 0l128.0 0l0 85.333336l-128.0 0z" fill-rule="evenodd"/><path fill="#ffffff" d="m6.790026 40.923885l8.440945 0l0 3.4645653l-8.440945 0z" fill-rule="evenodd"/><path stroke="#b7b7b7" stroke-width="1.0" stroke-linejoin="round" stroke-linecap="butt" d="m6.790026 40.923885l8.440945 0l0 3.4645653l-8.440945 0z" fill-rule="evenodd"/><path fill="#666666" d="m15.230971 51.947506l16.346455 0l0 13.007877l-16.346455 0z" fill-rule="evenodd"/><path stroke="#999999" stroke-width="1.0" stroke-linejoin="round" stroke-linecap="butt" d="m15.230971 51.947506l16.346455 0l0 13.007877l-16.346455 0z" fill-rule="evenodd"/><path fill="#666666" d="m47.892387 46.498688l55.433075 0l0 2.1102371l-55.433075 0z" fill-rule="evenodd"/><path stroke="#999999" stroke-width="1.0" stroke-linejoin="round" stroke-linecap="butt" d="m47.892387 46.498688l55.433075 0l0 2.1102371l-55.433075 0z" fill-rule="evenodd"/><path fill="#666666" d="m47.892387 39.17848l55.433075 0l0 2.1102371l-55.433075 0z" fill-rule="evenodd"/><path stroke="#999999" stroke-width="1.0" stroke-linejoin="round" stroke-linecap="butt" d="m47.892387 39.17848l55.433075 0l0 2.1102371l-55.433075 0z" fill-rule="evenodd"/><path fill="#666666" d="m42.2231 37.816273l5.6692886 0l0 11.77953l-5.6692886 0z" fill-rule="evenodd"/><path stroke="#999999" stroke-width="1.0" stroke-linejoin="round" stroke-linecap="butt" d="m42.2231 37.816273l5.6692886 0l0 11.77953l-5.6692886 0z" fill-rule="evenodd"/><path fill="#434343" d="m15.230971 35.737534l26.992126 0l0 13.858269l-26.992126 0z" fill-rule="evenodd"/><path stroke="#666666" stroke-width="1.0" stroke-linejoin="round" stroke-linecap="butt" d="m15.230971 35.737534l26.992126 0l0 13.858269l-26.992126 0z" fill-rule="evenodd"/><path fill="#434343" d="m20.737534 43.677166l25.889763 0l0 9.732285l-25.889763 0z" fill-rule="evenodd"/><path stroke="#666666" stroke-width="1.0" stroke-linejoin="round" stroke-linecap="butt" d="m20.737534 43.677166l25.889763 0l0 9.732285l-25.889763 0z" fill-rule="evenodd"/><path fill="#434343" d="m17.249344 40.923885l3.4960632 0l0 11.023621l-3.4960632 0z" fill-rule="evenodd"/><path stroke="#666666" stroke-width="1.0" stroke-linejoin="round" stroke-linecap="butt" d="m17.249344 40.923885l3.4960632 0l0 11.023621l-3.4960632 0z" fill-rule="evenodd"/><path fill="#666666" d="m47.892387 41.288715l55.433075 0l0 2.1102333l-55.433075 0z" fill-rule="evenodd"/><path stroke="#999999" stroke-width="1.0" stroke-linejoin="round" stroke-linecap="butt" d="m47.892387 41.288715l55.433075 0l0 2.1102333l-55.433075 0z" fill-rule="evenodd"/><path fill="#666666" d="m47.892387 44.38845l55.433075 0l0 2.1102371l-55.433075 0z" fill-rule="evenodd"/><path stroke="#999999" stroke-width="1.0" stroke-linejoin="round" stroke-linecap="butt" d="m47.892387 44.38845l55.433075 0l0 2.1102371l-55.433075 0z" fill-rule="evenodd"/><path fill="#666666" d="m66.097115 37.816273l3.4960632 0l0 11.77953l-3.4960632 0z" fill-rule="evenodd"/><path stroke="#999999" stroke-width="1.0" stroke-linejoin="round" stroke-linecap="butt" d="m66.097115 37.816273l3.4960632 0l0 11.77953l-3.4960632 0z" fill-rule="evenodd"/><path fill="#666666" d="m53.769028 37.816273l3.4960632 0l0 11.77953l-3.4960632 0z" fill-rule="evenodd"/><path stroke="#999999" stroke-width="1.0" stroke-linejoin="round" stroke-linecap="butt" d="m53.769028 37.816273l3.4960632 0l0 11.77953l-3.4960632 0z" fill-rule="evenodd"/><path fill="#666666" d="m98.272964 37.816273l3.4960632 0l0 11.77953l-3.4960632 0z" fill-rule="evenodd"/><path stroke="#999999" stroke-width="1.0" stroke-linejoin="round" stroke-linecap="butt" d="m98.272964 37.816273l3.4960632 0l0 11.77953l-3.4960632 0z" fill-rule="evenodd"/><path fill="#666666" d="m93.46719 37.816273l3.4960632 0l0 11.77953l-3.4960632 0z" fill-rule="evenodd"/><path stroke="#999999" stroke-width="1.0" stroke-linejoin="round" stroke-linecap="butt" d="m93.46719 37.816273l3.4960632 0l0 11.77953l-3.4960632 0z" fill-rule="evenodd"/><path fill="#cfe2f3" d="m117.76903 100.25459l3.4960632 0l0 14.677162l-3.4960632 0z" fill-rule="evenodd"/><path stroke="#000000" stroke-width="1.0" stroke-linejoin="round" stroke-linecap="butt" d="m117.76903 100.25459l3.4960632 0l0 14.677162l-3.4960632 0z" fill-rule="evenodd"/><path fill="#666666" d="m9.727035 31.748032l29.385826 0l0 2.1102371l-29.385826 0z" fill-rule="evenodd"/><path stroke="#999999" stroke-width="1.0" stroke-linejoin="round" stroke-linecap="butt" d="m9.727035 31.748032l29.385826 0l0 2.1102371l-29.385826 0z" fill-rule="evenodd"/><path fill="#666666" d="m35.968502 31.19685l3.4960632 0l0 8.629921l-3.4960632 0z" fill-rule="evenodd"/><path stroke="#999999" stroke-width="1.0" stroke-linejoin="round" stroke-linecap="butt" d="m35.968502 31.19685l3.4960632 0l0 8.629921l-3.4960632 0z" fill-rule="evenodd"/><path fill="#666666" d="m22.671917 31.19685l3.4960613 0l0 8.629921l-3.4960613 0z" fill-rule="evenodd"/><path stroke="#999999" stroke-width="1.0" stroke-linejoin="round" stroke-linecap="butt" d="m22.671917 31.19685l3.4960613 0l0 8.629921l-3.4960613 0z" fill-rule="evenodd"/><path fill="#666666" d="m6.422572 31.564304l3.4960632 0l0 14.677166l-3.4960632 0z" fill-rule="evenodd"/><path stroke="#999999" stroke-width="1.0" stroke-linejoin="round" stroke-linecap="butt" d="m6.422572 31.564304l3.4960632 0l0 14.677166l-3.4960632 0z" fill-rule="evenodd"/></g></svg>