<svg version="1.1" viewBox="0.0 0.0 128.0 85.33333333333333" fill="none" stroke="none" stroke-linecap="square" stroke-miterlimit="10" xmlns:xlink="http://www.w3.org/1999/xlink" xmlns="http://www.w3.org/2000/svg"><clipPath id="p.0"><path d="m0 0l128.0 0l0 85.333336l-128.0 0l0 -85.333336z" clip-rule="nonzero"/></clipPath><g clip-path="url(#p.0)"><path fill="#000000" fill-opacity="0.0" d="m0 0l128.0 0l0 85.333336l-128.0 0z" fill-rule="evenodd"/><path fill="#666666" d="m54.22966 42.524933l53.95275 0l0 5.0393715l-53.95275 0z" fill-rule="evenodd"/><path stroke="#999999" stroke-width="1.0" stroke-linejoin="round" stroke-linecap="butt" d="m54.22966 42.524933l53.95275 0l0 5.0393715l-53.95275 0z" fill-rule="evenodd"/><path fill="#666666" d="m41.94357 39.879265l20.671883 0l1.7218208 1.7218208l0 8.608887l-22.393703 0z" fill-rule="evenodd"/><path stroke="#999999" stroke-width="1.0" stroke-linejoin="round" stroke-linecap="butt" d="m41.94357 39.879265l20.671883 0l1.7218208 1.7218208l0 8.608887l-22.393703 0z" fill-rule="evenodd"/><path fill="#434343" d="m11.098425 32.51975l0 0c0 -1.7887993 1.4501095 -3.2389088 3.2389107 -3.2389088l15.91588 0c0.8590126 0 1.6828423 0.34124184 2.2902565 0.9486542c0.60741425 0.60741425 0.9486542 1.4312439 0.9486542 2.2902546l0 12.955254c0 1.7887993 -1.4501114 3.2389069 -3.2389107 3.2389069l-15.91588 0c-1.7888012 0 -3.2389107 -1.4501076 -3.2389107 -3.2389069z" fill-rule="evenodd"/><path stroke="#666666" stroke-width="1.0" stroke-linejoin="round" stroke-linecap="butt" d="m11.098425 32.51975l0 0c0 -1.7887993 1.4501095 -3.2389088 3.2389107 -3.2389088l15.91588 0c0.8590126 0 1.6828423 0.34124184 2.2902565 0.9486542c0.60741425 0.60741425 0.9486542 1.4312439 0.9486542 2.2902546l0 12.955254c0 1.7887993 -1.4501114 3.2389069 -3.2389107 3.2389069l-15.91588 0c-1.7888012 0 -3.2389107 -1.4501076 -3.2389107 -3.2389069z" fill-rule="evenodd"/><path fill="#666666" d="m16.153543 36.6142l0 0c0 -0.78857803 0.6392708 -1.4278488 1.4278507 -1.4278488l9.427763 0c0.37869072 0 0.741869 0.15043259 1.0096436 0.41820908c0.26777267 0.26777267 0.41820717 0.6309509 0.41820717 1.0096397l0 5.711231c0 0.78857803 -0.6392708 1.4278488 -1.4278507 1.4278488l-9.427763 0c-0.78857994 0 -1.4278507 -0.6392708 -1.4278507 -1.4278488z" fill-rule="evenodd"/><path stroke="#999999" stroke-width="1.0" stroke-linejoin="round" stroke-linecap="butt" d="m16.153543 36.6142l0 0c0 -0.78857803 0.6392708 -1.4278488 1.4278507 -1.4278488l9.427763 0c0.37869072 0 0.741869 0.15043259 1.0096436 0.41820908c0.26777267 0.26777267 0.41820717 0.6309509 0.41820717 1.0096397l0 5.711231c0 0.78857803 -0.6392708 1.4278488 -1.4278507 1.4278488l-9.427763 0c-0.78857994 0 -1.4278507 -0.6392708 -1.4278507 -1.4278488z" fill-rule="evenodd"/><path fill="#434343" d="m19.187664 48.71391l25.889763 0l0 7.338585l-25.889763 0z" fill-rule="evenodd"/><path stroke="#666666" stroke-width="1.0" stroke-linejoin="round" stroke-linecap="butt" d="m19.187664 48.71391l25.889763 0l0 7.338585l-25.889763 0z" fill-rule="evenodd"/><path fill="#434343" d="m20.654856 39.26509l33.574806 0l0 11.559055l-33.574806 0z" fill-rule="evenodd"/><path stroke="#666666" stroke-width="1.0" stroke-linejoin="round" stroke-linecap="butt" d="m20.654856 39.26509l33.574806 0l0 11.559055l-33.574806 0z" fill-rule="evenodd"/><path fill="#666666" d="m104.61811 47.490788l0 -4.892338l1.2231216 -1.2231216l11.060341 0l0 0l0 7.338581l0 0l-11.060341 0z" fill-rule="evenodd"/><path stroke="#999999" stroke-width="1.0" stroke-linejoin="round" stroke-linecap="butt" d="m104.61811 47.490788l0 -4.892338l1.2231216 -1.2231216l11.060341 0l0 0l0 7.338581l0 0l-11.060341 0z" fill-rule="evenodd"/></g></svg>